<svg width="151" height="223" viewBox="0 0 151 223" fill="none" xmlns="http://www.w3.org/2000/svg">
<path d="M17.8251 198.904L72.3094 220" stroke="#5D1BB9" stroke-width="5"/>
<line y1="-2.5" x2="112.61" y2="-2.5" transform="matrix(-0.603297 -0.797516 0.854688 -0.519142 72.6458 218.795)" stroke="#5D1BB9" stroke-width="5"/>
<line y1="-2.5" x2="170.807" y2="-2.5" transform="matrix(0.850616 0.525787 -0.610004 0.792398 0 128.986)" stroke="#5D1BB9" stroke-width="5"/>
<line y1="-2.5" x2="219.568" y2="-2.5" transform="matrix(-0.64946 -0.760396 0.824695 -0.565578 147.309 216.384)" stroke="#5D1BB9" stroke-width="5"/>
<line y1="-2.5" x2="162.725" y2="-2.5" transform="matrix(0.880462 0.474116 -0.556981 0.830526 4.03589 51.8356)" stroke="#5D1BB9" stroke-width="5"/>
<line y1="-2.5" x2="146.788" y2="-2.5" transform="matrix(-0.664454 -0.747329 0.81388 -0.581033 150 126.575)" stroke="#5D1BB9" stroke-width="5"/>
<line y1="-2.5" x2="86.4392" y2="-2.5" transform="matrix(0.894898 0.446271 -0.527595 0.849496 50.4484 19.8904)" stroke="#5D1BB9" stroke-width="5"/>
<line y1="-2.5" x2="60.7674" y2="-2.5" transform="matrix(-0.286492 -0.958083 0.972365 -0.233467 131.759 58.2201)" stroke="#5D1BB9" stroke-width="5"/>
</svg>
